<svg xmlns="http://www.w3.org/2000/svg" width="778" height="250" viewBox="0 0 778 250"><g transform="translate(50,40) scale(0.33203125)"><path d="M0,0 L271,0 Q335,0 335,64 L335,448 Q335,512 271,512 L0,512 Z" fill="#3178C6"/><path d="M512,0 L445,0 Q381,0 381,64 L381,448 Q381,512 445,512 L512,512 Z" fill="#F7DF1E"/><path d="M356.38 379.87L294.21 379.87L294.21 476L241.20 476L241.20 222.82L367.70 222.82Q412.98 222.82 437.60 242.32Q462.22 261.81 462.22 298.29Q462.22 324.88 447.13 344.20Q432.03 363.52 406.34 369.63L474.80 476L415.14 476L356.38 379.87M408.85 300.45Q408.85 263.97 362.13 263.97L294.21 263.97L294.21 338.72L363.57 338.72Q385.85 338.72 397.35 328.66Q408.85 318.59 408.85 300.45" fill="#FFFFFF"/></g><path d="M285.33 135.78L285.33 170L267.22 170L267.22 116.63Q267.22 110.90 267.06 107.06Q266.89 103.23 266.70 100.26L283.97 100.26Q284.10 100.84 284.23 102.84Q284.36 104.84 284.49 107.32Q284.62 109.80 284.72 111.99Q284.81 114.18 284.81 115.15L285.07 115.15Q287.65 107.93 289.78 104.77Q291.84 101.74 294.67 100.33Q297.51 98.91 301.76 98.91Q305.24 98.91 307.37 99.88L307.37 115.02Q303.05 114.05 299.64 114.05Q292.87 114.05 289.10 119.53Q285.33 125.01 285.33 135.78M378.27 138.61L333.54 138.61Q333.54 148.79 337.31 153.98Q341.08 159.17 348.04 159.17Q357.64 159.17 360.16 150.86L377.24 152.34Q369.83 171.29 347.14 171.29Q331.41 171.29 322.97 161.98Q314.53 152.66 314.53 134.81Q314.53 117.54 323.10 108.25Q331.67 98.97 347.40 98.97Q362.41 98.97 370.34 108.93Q378.27 118.89 378.27 138.10L378.27 138.61M333.67 127.27L360.74 127.27Q360.22 118.82 356.68 114.60Q353.13 110.38 347.14 110.38Q340.76 110.38 337.31 114.83Q333.86 119.28 333.67 127.27M410.11 132.62L410.11 170L392 170L392 115.86Q392 110.25 391.84 106.67Q391.68 103.10 391.48 100.26L408.76 100.26Q408.88 101.04 409.08 103.90Q409.27 106.77 409.43 109.77Q409.59 112.77 409.59 114.12L409.85 114.12Q413.20 106.13 418.20 102.52Q423.19 98.91 430.15 98.91Q446.14 98.91 449.55 114.12L449.94 114.12Q453.49 106 458.45 102.45Q463.41 98.91 471.08 98.91Q481.27 98.91 486.62 105.84Q491.96 112.77 491.96 125.72L491.96 170L473.98 170L473.98 130.88Q473.98 112.51 463.41 112.51Q458.13 112.51 454.58 117.63Q451.04 122.76 451.04 131.78L451.04 170L433.05 170L433.05 130.88Q433.05 112.51 422.48 112.51Q417.01 112.51 413.56 118.12Q410.11 123.72 410.11 132.62M569.05 138.61L524.32 138.61Q524.32 148.79 528.09 153.98Q531.86 159.17 538.82 159.17Q548.43 159.17 550.94 150.86L568.02 152.34Q560.61 171.29 537.92 171.29Q522.19 171.29 513.75 161.98Q505.31 152.66 505.31 134.81Q505.31 117.54 513.88 108.25Q522.45 98.97 538.18 98.97Q553.20 98.97 561.12 108.93Q569.05 118.89 569.05 138.10L569.05 138.61M524.45 127.27L551.52 127.27Q551 118.82 547.46 114.60Q543.91 110.38 537.92 110.38Q531.54 110.38 528.09 114.83Q524.64 119.28 524.45 127.27M645.49 170L627.96 170Q627.83 169.36 627.57 167.29Q627.32 165.23 627.16 162.78Q626.99 160.33 626.99 158.66L626.74 158.66Q620.87 171.29 604.44 171.29Q592.25 171.29 585.62 161.78Q578.98 152.28 578.98 135.20Q578.98 117.86 585.97 108.42Q592.96 98.97 605.79 98.97Q613.20 98.97 618.58 102.07Q623.96 105.16 626.87 111.28L626.99 111.28L626.87 99.81L626.87 74.35L644.98 74.35L644.98 154.79Q644.98 158.01 645.11 161.81Q645.23 165.62 645.49 170M597.86 135.20Q597.86 158.91 612.11 158.91Q619.26 158.91 623.19 152.63Q627.12 146.35 627.12 134.74Q627.12 123.46 623.35 117.37Q619.58 111.28 612.23 111.28Q597.86 111.28 597.86 135.20M679.52 171.29Q669.40 171.29 663.73 165.78Q658.06 160.27 658.06 150.28Q658.06 139.45 665.12 133.84Q672.18 128.23 685.58 127.98L700.60 127.72L700.60 124.17Q700.60 117.34 698.21 114.02Q695.83 110.70 690.42 110.70Q685.39 110.70 683.04 112.99Q680.68 115.28 680.10 120.56L661.22 119.66Q664.76 98.97 691.19 98.97Q704.40 98.97 711.56 105.48Q718.71 111.99 718.71 123.98L718.71 149.38Q718.71 155.24 720.03 157.46Q721.35 159.69 724.45 159.69Q726.51 159.69 728.44 159.30L728.44 169.10Q725.09 169.94 722.71 170.35Q720.32 170.77 716.84 170.77Q710.01 170.77 706.75 167.42Q703.50 164.07 702.86 157.56L702.47 157.56Q694.86 171.29 679.52 171.29M700.60 141.25L700.60 137.71L691.32 137.84Q684.94 138.16 682.36 139.19Q679.72 140.35 678.33 142.67Q676.95 144.99 676.95 148.86Q676.95 153.82 679.23 156.24Q681.52 158.66 685.32 158.66Q689.58 158.66 693.12 156.34Q696.60 154.02 698.60 149.92Q700.60 145.83 700.60 141.25" fill="#FFFFFF"/></svg>