<svg xmlns="http://www.w3.org/2000/svg" width="512" height="512" viewBox="0 0 512 512"><path d="M0,0 L271,0 Q335,0 335,64 L335,448 Q335,512 271,512 L0,512 Z" fill="#3178C6"/><path d="M512,0 L445,0 Q381,0 381,64 L381,448 Q381,512 445,512 L512,512 Z" fill="#F7DF1E"/><path d="M356.38 379.87L294.21 379.87L294.21 476L241.20 476L241.20 222.82L367.70 222.82Q412.98 222.82 437.60 242.32Q462.22 261.81 462.22 298.29Q462.22 324.88 447.13 344.20Q432.03 363.52 406.34 369.63L474.80 476L415.14 476L356.38 379.87M408.85 300.45Q408.85 263.97 362.13 263.97L294.21 263.97L294.21 338.72L363.57 338.72Q385.85 338.72 397.35 328.66Q408.85 318.59 408.85 300.45" fill="#1c1f26"/></svg>