<svg xmlns="http://www.w3.org/2000/svg" width="512" height="512" viewBox="0 0 512 512"><path d="M0 0L446 0L286 512L0 512ZM331.03 367.9L331.03 236L267.85 236L267.85 486L294.13 486ZM333.08 361.34L315.07 361.34L315.07 409.91L317.9 409.91ZM372.25 236.02L370.77 236L315.07 236L315.07 288.99L355.69 288.99ZM294.13 486L331.03 486L331.03 486L331.03 367.9ZM490 486L416.29 380.7L347.68 380.7L417.31 486L490 486ZM355.69 288.99L374.51 288.99L374.51 288.99L376.1 289.01L377.65 289.08L379.17 289.19L380.67 289.35L382.13 289.55L383.56 289.8L384.96 290.09L386.32 290.43L387.66 290.81L388.96 291.24L390.24 291.72L391.48 292.23L392.69 292.8L393.87 293.4L395.02 294.05L396.13 294.74L397.2 295.47L398.24 296.23L399.24 297.04L400.2 297.88L401.13 298.75L402.02 299.67L402.88 300.63L403.7 301.62L404.48 302.65L405.23 303.72L405.94 304.83L406.61 305.97L407.24 307.15L407.83 308.36L408.36 309.61L408.86 310.88L409.3 312.19L409.7 313.52L410.05 314.89L410.35 316.29L410.61 317.72L410.82 319.18L410.99 320.67L411.1 322.19L411.17 323.75L411.2 325.33L411.2 325.33L411.17 326.87L411.1 328.38L410.99 329.87L410.82 331.32L410.61 332.75L410.35 334.15L410.05 335.52L409.7 336.87L409.3 338.19L408.86 339.48L408.36 340.74L407.83 341.97L407.24 343.18L406.61 344.36L405.94 345.5L405.23 346.61L404.48 347.68L403.7 348.71L402.88 349.7L402.02 350.66L401.13 351.57L400.2 352.45L399.24 353.29L398.24 354.1L397.2 354.86L396.13 355.59L395.02 356.27L393.87 356.92L392.69 357.53L391.48 358.1L390.24 358.61L388.96 359.09L387.66 359.51L386.32 359.9L384.96 360.24L383.56 360.53L382.13 360.78L380.67 360.98L379.17 361.14L377.65 361.25L376.1 361.32L374.51 361.34L333.08 361.34L317.9 409.91L370.77 409.91L370.77 409.91L370.77 409.91L375.34 409.87L379.81 409.72L384.19 409.48L388.48 409.15L392.68 408.72L396.78 408.2L400.79 407.58L404.71 406.86L408.54 406.05L412.28 405.15L415.93 404.15L419.48 403.05L422.94 401.86L426.31 400.57L429.58 399.19L432.74 397.72L435.8 396.15L438.75 394.49L441.59 392.73L444.32 390.88L446.95 388.94L449.46 386.9L451.88 384.77L454.18 382.55L456.37 380.23L458.46 377.82L460.44 375.32L462.32 372.72L464.07 370.03L465.7 367.24L467.19 364.36L468.56 361.38L469.79 358.3L470.9 355.14L471.87 351.87L472.71 348.51L473.43 345.06L474.01 341.51L474.47 337.86L474.79 334.12L474.99 330.28L475.05 326.35L475.05 320.92L475.05 320.92L474.99 316.99L474.8 313.14L474.48 309.39L474.03 305.74L473.45 302.17L472.75 298.7L471.91 295.32L470.95 292.03L469.86 288.83L468.64 285.72L467.3 282.71L465.82 279.78L464.22 276.95L462.49 274.21L460.64 271.57L458.67 269.01L456.6 266.56L454.42 264.19L452.12 261.92L449.72 259.74L447.2 257.65L444.57 255.66L441.84 253.77L438.99 251.96L436.03 250.25L432.96 248.63L429.77 247.11L426.48 245.68L423.09 244.35L419.6 243.11L416.03 241.98L412.37 240.94L408.61 240L404.77 239.16L400.84 238.42L396.81 237.78L392.7 237.23L388.49 236.79L384.2 236.44L379.81 236.2L375.34 236.05L372.25 236.02Z" fill="#1c1f26"/></svg>