<svg xmlns="http://www.w3.org/2000/svg" width="512" height="512" viewBox="0 0 512 512"><polygon points="0,0 446,0 286,512 0,512" fill="#3178C6"/><polygon points="446,0 512,0 512,512 286,512" fill="#F7DF1E"/><path d="M294.13 486L267.85 486L267.85 236L331.03 236L331.03 367.9ZM317.9 409.91L315.07 409.91L315.07 361.34L333.08 361.34ZM355.69 288.99L315.07 288.99L315.07 236L370.77 236L372.25 236.02Z" fill="#FFFFFF"/><path d="M331.03 367.9L331.03 486L331.03 486L294.13 486ZM490 486L417.31 486L347.68 380.7L416.29 380.7L490 486ZM372.25 236.02L375.34 236.05L379.81 236.2L384.2 236.44L388.49 236.79L392.7 237.23L396.81 237.78L400.84 238.42L404.77 239.16L408.61 240L412.37 240.94L416.03 241.98L419.6 243.11L423.09 244.35L426.48 245.68L429.77 247.11L432.96 248.63L436.03 250.25L438.99 251.96L441.84 253.77L444.57 255.66L447.2 257.65L449.72 259.74L452.12 261.92L454.42 264.19L456.6 266.56L458.67 269.01L460.64 271.57L462.49 274.21L464.22 276.95L465.82 279.78L467.3 282.71L468.64 285.72L469.86 288.83L470.95 292.03L471.91 295.32L472.75 298.7L473.45 302.17L474.03 305.74L474.48 309.39L474.8 313.14L474.99 316.99L475.05 320.92L475.05 320.92L475.05 326.35L474.99 330.28L474.79 334.12L474.47 337.86L474.01 341.51L473.43 345.06L472.71 348.51L471.87 351.87L470.9 355.14L469.79 358.3L468.56 361.38L467.19 364.36L465.7 367.24L464.07 370.03L462.32 372.72L460.44 375.32L458.46 377.82L456.37 380.23L454.18 382.55L451.88 384.77L449.46 386.9L446.95 388.94L444.32 390.88L441.59 392.73L438.75 394.49L435.8 396.15L432.74 397.72L429.58 399.19L426.31 400.57L422.94 401.86L419.48 403.05L415.93 404.15L412.28 405.15L408.54 406.05L404.71 406.86L400.79 407.58L396.78 408.2L392.68 408.72L388.48 409.15L384.19 409.48L379.81 409.72L375.34 409.87L370.77 409.91L370.77 409.91L370.77 409.91L317.9 409.91L333.08 361.34L374.51 361.34L376.1 361.32L377.65 361.25L379.17 361.14L380.67 360.98L382.13 360.78L383.56 360.53L384.96 360.24L386.32 359.9L387.66 359.51L388.96 359.09L390.24 358.61L391.48 358.1L392.69 357.53L393.87 356.92L395.02 356.27L396.13 355.59L397.2 354.86L398.24 354.1L399.24 353.29L400.2 352.45L401.13 351.57L402.02 350.66L402.88 349.7L403.7 348.71L404.48 347.68L405.23 346.61L405.94 345.5L406.61 344.36L407.24 343.18L407.83 341.97L408.36 340.74L408.86 339.48L409.3 338.19L409.7 336.87L410.05 335.52L410.35 334.15L410.61 332.75L410.82 331.32L410.99 329.87L411.1 328.38L411.17 326.87L411.2 325.33L411.2 325.33L411.17 323.75L411.1 322.19L410.99 320.67L410.82 319.18L410.61 317.72L410.35 316.29L410.05 314.89L409.7 313.52L409.3 312.19L408.86 310.88L408.36 309.61L407.83 308.36L407.24 307.15L406.61 305.97L405.94 304.83L405.23 303.72L404.48 302.65L403.7 301.62L402.88 300.63L402.02 299.67L401.13 298.75L400.2 297.88L399.24 297.04L398.24 296.23L397.2 295.47L396.13 294.74L395.02 294.05L393.87 293.4L392.69 292.8L391.48 292.23L390.24 291.72L388.96 291.24L387.66 290.81L386.32 290.43L384.96 290.09L383.56 289.8L382.13 289.55L380.67 289.35L379.17 289.19L377.65 289.08L376.1 289.01L374.51 288.99L374.51 288.99L355.69 288.99Z" fill="#1c1f26"/></svg>