<svg xmlns="http://www.w3.org/2000/svg" width="1898" height="512" viewBox="0 0 1898 512"><g transform="translate(36,41) scale(0.8398)"><rect width="512" height="512" fill="#f7df1e"/><polygon points="0,0 391,0 316,512 0,512" fill="#3178c6"/><path d="M302.39 484L238.88 484L238.88 199L350.02 199L355.01 199.05L359.9 199.22L364.69 199.49L369.4 199.87L374 200.36L378.52 200.96L382.93 201.66L387.26 202.48L391.48 203.4L395.62 204.43L399.66 205.57L403.6 206.82L407.45 208.18L411.2 209.65L414.85 211.22L418.37 212.9L421.77 214.68L425.05 216.57L428.2 218.56L431.23 220.66L434.14 222.86L436.93 225.17L439.6 227.58L442.14 230.1L444.56 232.72L446.86 235.44L449.03 238.27L451.09 241.21L453.01 244.25L454.78 247.4L456.42 250.67L457.91 254.04L459.26 257.53L460.47 261.12L461.54 264.83L462.47 268.65L463.25 272.57L463.89 276.61L464.39 280.76L464.74 285.02L464.95 289.39L465.03 293.87L465.03 293.87L465.03 300.07L464.95 304.49L464.74 308.81L464.39 313.01L463.89 317.1L463.25 321.09L462.47 324.96L461.54 328.72L460.47 332.37L459.26 335.91L457.91 339.34L456.42 342.66L454.78 345.87L453.01 348.97L451.09 351.96L451.09 351.96L449.04 354.84L446.87 357.61L444.6 360.29L442.2 362.86L439.7 365.33L437.07 367.7L434.34 369.96L431.49 372.12L428.52 374.18L425.44 376.14L422.25 377.99L418.94 379.74L415.51 381.39L411.98 382.93L411.98 382.93L484 484L410.43 484L348.86 393.39L302.39 393.39L302.39 484ZM355.05 252.82L302.39 252.82L302.39 343.44L355.05 343.44L357.03 343.41L358.96 343.32L360.86 343.18L362.72 342.98L364.54 342.72L366.33 342.4L368.07 342.03L369.78 341.6L371.46 341.12L373.09 340.57L374.69 339.97L376.25 339.31L377.77 338.59L379.25 337.82L380.7 337L382.09 336.12L383.44 335.2L384.74 334.23L385.99 333.22L387.2 332.16L388.35 331.04L389.46 329.89L390.53 328.68L391.54 327.43L392.51 326.13L393.43 324.78L394.31 323.39L395.13 321.94L395.9 320.46L396.62 318.95L397.28 317.4L397.88 315.81L398.43 314.2L398.91 312.54L399.34 310.86L399.71 309.14L400.03 307.39L400.29 305.61L400.49 303.79L400.63 301.94L400.72 300.05L400.75 298.13L400.72 296.21L400.63 294.33L400.49 292.47L400.29 290.65L400.03 288.87L399.71 287.12L399.34 285.4L398.91 283.72L398.43 282.07L397.88 280.45L397.28 278.86L396.62 277.31L395.9 275.8L395.13 274.32L394.31 272.87L393.43 271.48L392.51 270.13L391.54 268.83L390.53 267.58L389.46 266.37L388.35 265.22L387.2 264.11L385.99 263.04L384.74 262.03L383.44 261.06L382.09 260.14L380.7 259.27L379.25 258.44L377.77 257.67L376.25 256.95L374.69 256.29L373.09 255.69L371.46 255.15L369.78 254.66L368.07 254.23L366.33 253.86L364.54 253.54L362.72 253.28L360.86 253.08L358.96 252.94L357.03 252.85L355.05 252.82L355.05 252.82Z" fill="#1c1f26"/><path d="M333.37 393.39L302.39 393.39L302.39 484L302.39 484L238.88 484L238.88 199L350.02 199L355.01 199.05L359.9 199.22L361.8 199.33ZM353.97 252.82L302.39 252.82L302.39 343.44L340.69 343.44Z" fill="#ffffff"/></g><path d="M607.33 372.59L554 372.59L554 133.23L647.34 133.23Q676.93 133.23 698.72 142.18Q720.51 151.12 732.22 168.68Q743.92 186.24 743.92 212.91L743.92 212.91L743.92 218.11Q743.92 244.46 732.22 261.69L732.22 261.69Q720.51 278.93 699.37 287.71L699.37 287.71L759.86 372.59L698.07 372.59L646.36 296.49L607.33 296.49L607.33 372.59M651.56 178.44L607.33 178.44L607.33 254.54L651.56 254.54Q663.27 254.54 671.89 249.82Q680.51 245.11 685.22 236.49Q689.94 227.87 689.94 216.49Q689.94 205.1 685.22 196.49Q680.51 187.87 671.89 183.15Q663.27 178.44 651.56 178.44L651.56 178.44M866.85 378.77L866.85 378.77Q844.09 378.77 826.69 370.96Q809.29 363.16 797.75 349.99Q786.2 336.81 780.18 320.39Q774.17 303.97 774.17 286.73L774.17 286.73L774.17 280.23Q774.17 262.34 780.18 245.92Q786.2 229.5 797.58 216.49Q808.97 203.48 826.04 195.84Q843.11 188.19 864.9 188.19L864.9 188.19Q893.52 188.19 913.2 201.04Q932.87 213.89 943.28 234.54Q953.68 255.19 953.68 279.58L953.68 279.58L953.68 297.14L823.6 297.14Q824.58 304.94 827.18 311.45L827.18 311.45Q831.73 323.48 841.49 329.99Q851.24 336.49 866.85 336.49L866.85 336.49Q881.16 336.49 890.27 330.96Q899.37 325.43 902.63 317.3L902.63 317.3L950.43 317.3Q946.53 335.19 935.15 349.17Q923.77 363.16 906.53 370.96Q889.29 378.77 866.85 378.77M823.93 267.54L823.93 267.54L904.25 267.54Q903.28 260.07 900.68 253.89L900.68 253.89Q896.12 242.5 887.18 236.49Q878.24 230.47 864.9 230.47L864.9 230.47Q851.24 230.47 841.81 236.65Q832.38 242.83 827.5 254.54L827.5 254.54Q825.23 260.39 823.93 267.54M1040.19 372.59L988.16 372.59L988.16 194.37L1029.46 194.37L1029.46 239.25Q1031.08 231.77 1033.36 225.59L1033.36 225.59Q1040.19 207.38 1053.85 198.11Q1067.51 188.84 1087.35 188.84L1087.35 188.84L1089.62 188.84Q1109.79 188.84 1123.28 198.11Q1136.78 207.38 1143.93 225.59L1143.93 225.59Q1144.26 226.57 1144.58 227.22L1144.58 227.22Q1144.58 226.57 1145.23 225.59L1145.23 225.59Q1152.06 207.38 1165.72 198.11Q1179.38 188.84 1199.22 188.84L1199.22 188.84L1201.5 188.84Q1221.66 188.84 1235.48 198.11Q1249.3 207.38 1256.46 225.59Q1263.61 243.8 1263.61 271.12L1263.61 271.12L1263.61 372.59L1211.58 372.59L1211.58 268.2Q1211.58 253.56 1203.93 244.46Q1196.29 235.35 1182.31 235.35Q1168.32 235.35 1160.19 244.62Q1152.06 253.89 1152.06 269.17L1152.06 269.17L1152.06 372.59L1099.7 372.59L1099.7 268.2Q1099.7 253.56 1092.06 244.46Q1084.42 235.35 1070.76 235.35L1070.76 235.35Q1056.45 235.35 1048.32 244.62Q1040.19 253.89 1040.19 269.17L1040.19 269.17L1040.19 372.59M1389.47 378.77L1389.47 378.77Q1366.7 378.77 1349.3 370.96Q1331.91 363.16 1320.36 349.99Q1308.82 336.81 1302.8 320.39Q1296.78 303.97 1296.78 286.73L1296.78 286.73L1296.78 280.23Q1296.78 262.34 1302.8 245.92Q1308.82 229.5 1320.2 216.49Q1331.58 203.48 1348.65 195.84Q1365.73 188.19 1387.52 188.19L1387.52 188.19Q1416.13 188.19 1435.81 201.04Q1455.49 213.89 1465.89 234.54Q1476.3 255.19 1476.3 279.58L1476.3 279.58L1476.3 297.14L1346.21 297.14Q1347.19 304.94 1349.79 311.45L1349.79 311.45Q1354.34 323.48 1364.1 329.99Q1373.86 336.49 1389.47 336.49L1389.47 336.49Q1403.78 336.49 1412.88 330.96Q1421.99 325.43 1425.24 317.3L1425.24 317.3L1473.05 317.3Q1469.14 335.19 1457.76 349.17Q1446.38 363.16 1429.14 370.96Q1411.91 378.77 1389.47 378.77M1346.54 267.54L1346.54 267.54L1426.87 267.54Q1425.89 260.07 1423.29 253.89L1423.29 253.89Q1418.74 242.5 1409.79 236.49Q1400.85 230.47 1387.52 230.47L1387.52 230.47Q1373.86 230.47 1364.43 236.65Q1355 242.83 1350.12 254.54L1350.12 254.54Q1347.84 260.39 1346.54 267.54M1584.27 378.44L1584.27 378.44Q1565.41 378.44 1549.96 371.61Q1534.51 364.78 1523.13 352.59Q1511.75 340.39 1505.73 323.81Q1499.71 307.22 1499.71 288.03L1499.71 288.03L1499.71 280.55Q1499.71 261.37 1505.41 244.78Q1511.1 228.19 1521.99 215.67Q1532.89 203.15 1548.17 196.16Q1563.46 189.17 1582.32 189.17L1582.32 189.17Q1603.78 189.17 1619.39 198.28L1619.39 198.28Q1631.75 205.75 1639.88 218.76L1639.88 218.76L1639.88 135.18L1692.24 135.18L1692.24 372.59L1650.94 372.59L1650.94 334.86Q1649.31 338.44 1647.69 342.02L1647.69 342.02Q1637.93 359.9 1621.67 369.17Q1605.41 378.44 1584.27 378.44M1597.28 334.86L1597.28 334.86Q1609.31 334.86 1619.23 329.5Q1629.15 324.13 1635.16 313.72Q1641.18 303.32 1641.18 288.68L1641.18 288.68L1641.18 276.65Q1641.18 262.34 1635 252.59Q1628.82 242.83 1618.74 237.63Q1608.66 232.42 1596.95 232.42L1596.95 232.42Q1583.94 232.42 1573.7 239.09Q1563.46 245.76 1557.6 257.3Q1551.75 268.85 1551.75 284.13L1551.75 284.13Q1551.75 299.74 1557.6 311.12Q1563.46 322.51 1573.86 328.68Q1584.27 334.86 1597.28 334.86M1888.34 372.59L1847.04 372.59L1847.04 338.44Q1844.76 345.27 1841.84 350.8L1841.84 350.8Q1834.36 363.48 1821.51 370.31Q1808.66 377.14 1790.13 377.14L1790.13 377.14Q1770.94 377.14 1756.47 370.31Q1742 363.48 1733.87 350.64Q1725.74 337.79 1725.74 319.9L1725.74 319.9Q1725.74 300.39 1735.82 287.87Q1745.9 275.35 1764.11 269.33Q1782.32 263.32 1806.06 263.32L1806.06 263.32L1838.26 263.32L1838.26 262.67Q1838.26 249.01 1831.75 242.18Q1825.25 235.35 1810.94 235.35L1810.94 235.35Q1803.79 235.35 1792.08 235.67Q1780.37 236 1768.01 236.65Q1755.66 237.3 1745.57 237.95L1745.57 237.95L1745.57 194.05Q1753.05 193.4 1763.14 192.75Q1773.22 192.1 1783.95 191.77Q1794.68 191.45 1804.11 191.45L1804.11 191.45Q1831.43 191.45 1850.13 199.25Q1868.83 207.06 1878.59 222.83Q1888.34 238.6 1888.34 263.32L1888.34 263.32L1888.34 372.59M1838.26 306.57L1838.26 292.26L1805.74 292.26Q1792.08 292.26 1784.76 298.93Q1777.44 305.59 1777.44 316.98L1777.44 316.98Q1777.44 327.71 1784.76 334.38Q1792.08 341.04 1805.74 341.04L1805.74 341.04Q1814.52 341.04 1821.51 337.95Q1828.5 334.86 1833.06 327.38Q1837.61 319.9 1838.26 306.57L1838.26 306.57" fill="#f1f5f9"/></svg>