<svg xmlns="http://www.w3.org/2000/svg" width="1754" height="512" viewBox="0 0 1754 512"><g transform="translate(36,41) scale(0.8398)"><rect width="512" height="512" fill="#f7df1e"/><polygon points="0,0 446,0 286,512 0,512" fill="#3178c6"/><path d="M331.03 486L267.85 486L267.85 236L331.03 236L331.03 486ZM490 486L417.31 486L347.68 380.7L416.29 380.7L490 486ZM370.77 409.91L315.07 409.91L315.07 361.34L374.51 361.34L376.1 361.32L377.65 361.25L379.17 361.14L380.67 360.98L382.13 360.78L383.56 360.53L384.96 360.24L386.32 359.9L387.66 359.51L388.96 359.09L390.24 358.61L391.48 358.1L392.69 357.53L393.87 356.92L395.02 356.27L396.13 355.59L397.2 354.86L398.24 354.1L399.24 353.29L400.2 352.45L401.13 351.57L402.02 350.66L402.88 349.7L403.7 348.71L404.48 347.68L405.23 346.61L405.94 345.5L406.61 344.36L407.24 343.18L407.83 341.97L408.36 340.74L408.86 339.48L409.3 338.19L409.7 336.87L410.05 335.52L410.35 334.15L410.61 332.75L410.82 331.32L410.99 329.87L411.1 328.38L411.17 326.87L411.2 325.33L411.2 325.33L411.17 323.75L411.1 322.19L410.99 320.67L410.82 319.18L410.61 317.72L410.35 316.29L410.05 314.89L409.7 313.52L409.3 312.19L408.86 310.88L408.36 309.61L407.83 308.36L407.24 307.15L406.61 305.97L405.94 304.83L405.23 303.72L404.48 302.65L403.7 301.62L402.88 300.63L402.02 299.67L401.13 298.75L400.2 297.88L399.24 297.04L398.24 296.23L397.2 295.47L396.13 294.74L395.02 294.05L393.87 293.4L392.69 292.8L391.48 292.23L390.24 291.72L388.96 291.24L387.66 290.81L386.32 290.43L384.96 290.09L383.56 289.8L382.13 289.55L380.67 289.35L379.17 289.19L377.65 289.08L376.1 289.01L374.51 288.99L374.51 288.99L315.07 288.99L315.07 236L370.77 236L375.34 236.05L379.81 236.2L384.2 236.44L388.49 236.79L392.7 237.23L396.81 237.78L400.84 238.42L404.77 239.16L408.61 240L412.37 240.94L416.03 241.98L419.6 243.11L423.09 244.35L426.48 245.68L429.77 247.11L432.96 248.63L436.03 250.25L438.99 251.96L441.84 253.77L444.57 255.66L447.2 257.65L449.72 259.74L452.12 261.92L454.42 264.19L456.6 266.56L458.67 269.01L460.64 271.57L462.49 274.21L464.22 276.95L465.82 279.78L467.3 282.71L468.64 285.72L469.86 288.83L470.95 292.03L471.91 295.32L472.75 298.7L473.45 302.17L474.03 305.74L474.48 309.39L474.8 313.14L474.99 316.99L475.05 320.92L475.05 320.92L475.05 326.35L474.99 330.28L474.79 334.12L474.47 337.86L474.01 341.51L473.43 345.06L472.71 348.51L471.87 351.87L470.9 355.14L469.79 358.3L468.56 361.38L467.19 364.36L465.7 367.24L464.07 370.03L462.32 372.72L460.44 375.32L458.46 377.82L456.37 380.23L454.18 382.55L451.88 384.77L449.46 386.9L446.95 388.94L444.32 390.88L441.59 392.73L438.75 394.49L435.8 396.15L432.74 397.72L429.58 399.19L426.31 400.57L422.94 401.86L419.48 403.05L415.93 404.15L412.28 405.15L408.54 406.05L404.71 406.86L400.79 407.58L396.78 408.2L392.68 408.72L388.48 409.15L384.19 409.48L379.81 409.72L375.34 409.87L370.77 409.91L370.77 409.91Z" fill="#1c1f26"/><path d="M294.13 486L267.85 486L267.85 236L331.03 236L331.03 367.9ZM317.9 409.91L315.07 409.91L315.07 361.34L333.08 361.34ZM355.69 288.99L315.07 288.99L315.07 236L370.77 236L372.25 236.02Z" fill="#ffffff"/></g><path d="M607.06 358.13L554 358.13L554 148.17L607.06 148.17L607.06 358.13M740.57 358.13L679.52 358.13L621.04 269.69L678.66 269.69L740.57 358.13M640.44 294.23L593.65 294.23L593.65 253.43L643.58 253.43Q652.99 253.43 659.84 249.72Q666.68 246.02 670.53 239.17Q674.39 232.32 674.39 223.19L674.39 223.19Q674.39 213.78 670.53 206.93Q666.68 200.09 659.84 196.38Q652.99 192.67 643.58 192.67L643.58 192.67L593.65 192.67L593.65 148.17L640.44 148.17Q667.54 148.17 687.22 156.3Q706.91 164.43 717.46 180.26Q728.02 196.09 728.02 219.49L728.02 219.49L728.02 224.05Q728.02 247.44 717.32 262.99Q706.62 278.54 687.08 286.38Q667.54 294.23 640.44 294.23L640.44 294.23M833.85 363.83L833.85 363.83Q813.88 363.83 798.48 356.99Q783.07 350.14 772.52 338.44Q761.96 326.75 756.4 312.2Q750.84 297.65 750.84 282.25L750.84 282.25L750.84 276.54Q750.84 260.56 756.4 245.87Q761.96 231.18 772.38 219.77Q782.79 208.36 797.91 201.66Q813.03 194.95 832.14 194.95L832.14 194.95Q857.53 194.95 875.22 206.36Q892.9 217.77 902.32 236.46Q911.73 255.14 911.73 277.11L911.73 277.11L911.73 293.66L772.52 293.66L772.52 265.7L881.78 265.7L863.81 278.25Q863.81 264.84 860.24 255.57Q856.67 246.3 849.69 241.45Q842.7 236.6 832.14 236.6L832.14 236.6Q821.87 236.6 814.31 241.31Q806.75 246.02 802.76 255.57Q798.76 265.13 798.76 279.68L798.76 279.68Q798.76 292.8 802.47 302.36Q806.18 311.91 813.88 317.05Q821.59 322.18 833.85 322.18L833.85 322.18Q844.69 322.18 851.68 318.47Q858.67 314.77 861.52 308.49L861.52 308.49L908.88 308.49Q905.46 324.47 895.33 337.02Q885.2 349.57 869.65 356.7Q854.11 363.83 833.85 363.83M991.04 358.13L939.12 358.13L939.12 200.66L980.2 200.66L980.2 268.55L977.92 268.55Q977.92 244.02 984.05 227.9Q990.18 211.78 1002.16 203.65Q1014.15 195.52 1031.55 195.52L1031.55 195.52L1033.83 195.52Q1051.52 195.52 1063.35 203.65Q1075.19 211.78 1081.33 227.9Q1087.46 244.02 1087.46 268.55L1087.46 268.55L1075.48 268.55Q1075.48 244.02 1081.61 227.9Q1087.75 211.78 1099.73 203.65Q1111.71 195.52 1129.11 195.52L1129.11 195.52L1131.39 195.52Q1149.08 195.52 1161.2 203.65Q1173.33 211.78 1179.75 227.9Q1186.16 244.02 1186.16 268.55L1186.16 268.55L1186.16 358.13L1134.25 358.13L1134.25 267.13Q1134.25 256.29 1128.4 249.01Q1122.55 241.74 1111.71 241.74L1111.71 241.74Q1100.87 241.74 1094.73 249.01Q1088.6 256.29 1088.6 267.7L1088.6 267.7L1088.6 358.13L1036.68 358.13L1036.68 267.13Q1036.68 256.29 1030.83 249.01Q1024.99 241.74 1014.15 241.74L1014.15 241.74Q1003.3 241.74 997.17 249.01Q991.04 256.29 991.04 267.7L991.04 267.7L991.04 358.13M1294.85 363.83L1294.85 363.83Q1274.88 363.83 1259.48 356.99Q1244.08 350.14 1233.52 338.44Q1222.97 326.75 1217.4 312.2Q1211.84 297.65 1211.84 282.25L1211.84 282.25L1211.84 276.54Q1211.84 260.56 1217.4 245.87Q1222.97 231.18 1233.38 219.77Q1243.79 208.36 1258.91 201.66Q1274.03 194.95 1293.14 194.95L1293.14 194.95Q1318.53 194.95 1336.22 206.36Q1353.91 217.77 1363.32 236.46Q1372.73 255.14 1372.73 277.11L1372.73 277.11L1372.73 293.66L1233.52 293.66L1233.52 265.7L1342.78 265.7L1324.81 278.25Q1324.81 264.84 1321.24 255.57Q1317.68 246.3 1310.69 241.45Q1303.7 236.6 1293.14 236.6L1293.14 236.6Q1282.87 236.6 1275.31 241.31Q1267.75 246.02 1263.76 255.57Q1259.77 265.13 1259.77 279.68L1259.77 279.68Q1259.77 292.8 1263.47 302.36Q1267.18 311.91 1274.88 317.05Q1282.59 322.18 1294.85 322.18L1294.85 322.18Q1305.69 322.18 1312.68 318.47Q1319.67 314.77 1322.53 308.49L1322.53 308.49L1369.88 308.49Q1366.46 324.47 1356.33 337.02Q1346.2 349.57 1330.66 356.7Q1315.11 363.83 1294.85 363.83M1464.88 363.26L1464.88 363.26Q1448.33 363.26 1434.78 357.27Q1421.23 351.28 1411.39 340.58Q1401.55 329.89 1396.27 315.34Q1390.99 300.79 1390.99 283.67L1390.99 283.67L1390.99 276.82Q1390.99 259.71 1395.98 245.02Q1400.98 230.33 1410.39 219.34Q1419.8 208.36 1433.21 202.23Q1446.62 196.09 1463.17 196.09L1463.17 196.09Q1482.28 196.09 1495.83 204.51Q1509.38 212.92 1516.65 228.9Q1523.93 244.87 1524.5 267.7L1524.5 267.7L1512.52 258.85L1512.52 149.88L1564.44 149.88L1564.44 358.13L1523.36 358.13L1523.36 294.23L1529.06 294.23Q1528.49 315.34 1520.5 330.88Q1512.52 346.43 1498.4 354.85Q1484.28 363.26 1464.88 363.26M1478.86 320.47L1478.86 320.47Q1488.27 320.47 1496.11 316.19Q1503.96 311.91 1508.81 303.64Q1513.66 295.37 1513.66 283.67L1513.66 283.67L1513.66 273.97Q1513.66 262.56 1508.67 254.86Q1503.67 247.16 1495.83 243.02Q1487.98 238.88 1478.86 238.88L1478.86 238.88Q1468.59 238.88 1460.45 244.16Q1452.32 249.44 1447.62 258.71Q1442.91 267.98 1442.91 280.25L1442.91 280.25Q1442.91 292.51 1447.62 301.5Q1452.32 310.49 1460.45 315.48Q1468.59 320.47 1478.86 320.47M1738.45 358.13L1697.37 358.13L1697.37 311.91L1688.82 311.91L1688.82 262.56Q1688.82 251.72 1683.82 246.44Q1678.83 241.17 1667.42 241.17L1667.42 241.17Q1662 241.17 1651.45 241.45Q1640.89 241.74 1629.19 242.31Q1617.5 242.88 1607.8 243.45L1607.8 243.45L1607.8 200.09Q1614.65 199.52 1624.06 198.95Q1633.47 198.37 1643.6 198.09Q1653.73 197.8 1662.29 197.8L1662.29 197.8Q1686.53 197.8 1703.51 204.94Q1720.48 212.07 1729.47 226.33Q1738.45 240.6 1738.45 262.56L1738.45 262.56L1738.45 358.13M1647.45 362.12L1647.45 362.12Q1630.91 362.12 1618.07 356.13Q1605.23 350.14 1597.96 338.87Q1590.68 327.6 1590.68 311.91L1590.68 311.91Q1590.68 294.23 1600.1 283.24Q1609.51 272.26 1626.06 267.13Q1642.6 261.99 1664 261.99L1664 261.99L1694.52 261.99L1694.52 288.81L1664 288.81Q1653.44 288.81 1647.74 294.08Q1642.03 299.36 1642.03 308.2L1642.03 308.2Q1642.03 316.76 1647.74 322.04Q1653.44 327.32 1664 327.32L1664 327.32Q1670.84 327.32 1676.12 324.89Q1681.4 322.47 1684.82 316.48Q1688.25 310.49 1688.82 299.93L1688.82 299.93L1700.8 311.34Q1699.37 327.6 1692.95 338.87Q1686.53 350.14 1675.27 356.13Q1664 362.12 1647.45 362.12" fill="#1c1f26"/></svg>