<svg xmlns="http://www.w3.org/2000/svg" width="1870" height="512" viewBox="0 0 1870 512"><g transform="translate(36,41) scale(0.8398)"><rect width="512" height="512" fill="#f7df1e"/><polygon points="0,0 426,0 264,512 0,512" fill="#3178c6"/><path d="M315.14 486L245.64 486L245.64 211L315.14 211L315.14 486ZM490 486L410.04 486L333.44 370.17L408.92 370.17L490 486ZM358.85 402.3L297.57 402.3L297.57 348.87L362.96 348.87L364.71 348.85L366.42 348.77L368.09 348.65L369.73 348.48L371.34 348.25L372.91 347.98L374.45 347.66L375.96 347.29L377.43 346.87L378.86 346.4L380.26 345.87L381.63 345.3L382.96 344.69L384.26 344.02L385.52 343.3L386.74 342.54L387.92 341.75L389.06 340.91L390.16 340.02L391.23 339.1L392.25 338.13L393.23 337.12L394.17 336.07L395.07 334.98L395.93 333.85L396.75 332.67L397.53 331.45L398.27 330.19L398.97 328.9L399.61 327.57L400.2 326.21L400.74 324.82L401.23 323.41L401.67 321.96L402.05 320.48L402.39 318.97L402.67 317.43L402.9 315.86L403.08 314.25L403.21 312.62L403.29 310.96L403.32 309.27L403.32 309.27L403.29 307.52L403.21 305.81L403.08 304.14L402.9 302.5L402.67 300.89L402.39 299.32L402.05 297.78L401.67 296.27L401.23 294.8L400.74 293.37L400.2 291.97L399.61 290.6L398.97 289.27L398.27 287.97L397.53 286.71L396.75 285.49L395.93 284.32L395.07 283.18L394.17 282.09L393.23 281.04L392.25 280.03L391.23 279.06L390.16 278.14L389.06 277.26L387.92 276.42L386.74 275.62L385.52 274.86L384.26 274.15L382.96 273.48L381.63 272.86L380.26 272.29L378.86 271.77L377.43 271.3L375.96 270.87L374.45 270.5L372.91 270.18L371.34 269.91L369.73 269.68L368.09 269.51L366.42 269.39L364.71 269.31L362.96 269.29L362.96 269.29L297.57 269.29L297.57 211L358.85 211L363.87 211.05L368.8 211.22L373.62 211.49L378.34 211.87L382.97 212.36L387.49 212.96L391.92 213.66L396.25 214.48L400.47 215.4L404.6 216.43L408.63 217.57L412.56 218.82L416.4 220.18L420.13 221.65L423.75 223.22L427.25 224.9L430.63 226.68L433.89 228.56L437.02 230.54L440.03 232.63L442.92 234.82L445.69 237.11L448.34 239.51L450.86 242.01L453.26 244.61L455.54 247.32L457.7 250.12L459.74 253.03L461.64 256.05L463.4 259.16L465.03 262.38L466.51 265.69L467.85 269.11L469.05 272.63L470.1 276.25L471.02 279.97L471.8 283.79L472.43 287.71L472.92 291.73L473.28 295.86L473.49 300.08L473.56 304.41L473.56 304.41L473.56 310.39L473.49 314.71L473.27 318.93L472.92 323.05L472.42 327.06L471.77 330.96L470.99 334.76L470.06 338.46L468.98 342.05L467.77 345.53L466.41 348.92L464.91 352.19L463.27 355.36L461.48 358.43L459.55 361.39L457.49 364.25L455.31 367L453.01 369.65L450.6 372.2L448.06 374.65L445.41 376.99L442.64 379.23L439.75 381.37L436.75 383.4L433.62 385.33L430.38 387.16L427.02 388.89L423.54 390.51L419.94 392.03L416.24 393.44L412.43 394.76L408.52 395.96L404.51 397.06L400.4 398.06L396.19 398.95L391.87 399.74L387.46 400.42L382.94 400.99L378.33 401.47L373.61 401.83L368.79 402.09L363.87 402.25L358.85 402.3L358.85 402.3Z" fill="#1c1f26"/><path d="M272.23 486L245.64 486L245.64 211L315.14 211L315.14 350.39ZM298.71 402.3L297.57 402.3L297.57 348.87L315.61 348.87ZM340.8 269.29L297.57 269.29L297.57 211L358.85 211L359.24 211Z" fill="#ffffff"/></g><path d="M612.37 368.34L554 368.34L554 137.38L612.37 137.38L612.37 368.34M759.23 368.34L692.07 368.34L627.74 271.06L691.13 271.06L759.23 368.34M649.08 298.05L597.62 298.05L597.62 253.18L652.53 253.18Q662.89 253.18 670.42 249.1Q677.95 245.02 682.19 237.49Q686.42 229.95 686.42 219.91L686.42 219.91Q686.42 209.56 682.19 202.03Q677.95 194.5 670.42 190.42Q662.89 186.34 652.53 186.34L652.53 186.34L597.62 186.34L597.62 137.38L649.08 137.38Q678.89 137.38 700.54 146.33Q722.2 155.27 733.81 172.69Q745.42 190.1 745.42 215.83L745.42 215.83L745.42 220.85Q745.42 246.59 733.65 263.69Q721.88 280.79 700.39 289.42Q678.89 298.05 649.08 298.05L649.08 298.05M861.84 374.62L861.84 374.62Q839.87 374.62 822.93 367.09Q805.98 359.55 794.37 346.69Q782.76 333.82 776.64 317.82Q770.52 301.81 770.52 284.87L770.52 284.87L770.52 278.59Q770.52 261.02 776.64 244.86Q782.76 228.7 794.21 216.15Q805.67 203.6 822.3 196.22Q838.93 188.85 859.96 188.85L859.96 188.85Q887.88 188.85 907.34 201.4Q926.79 213.95 937.15 234.5Q947.51 255.06 947.51 279.22L947.51 279.22L947.51 297.42L794.37 297.42L794.37 266.67L914.56 266.67L894.79 280.48Q894.79 265.73 890.86 255.53Q886.94 245.33 879.25 240Q871.57 234.66 859.96 234.66L859.96 234.66Q848.66 234.66 840.34 239.84Q832.03 245.02 827.63 255.53Q823.24 266.04 823.24 282.05L823.24 282.05Q823.24 296.48 827.32 306.99Q831.4 317.5 839.87 323.15Q848.34 328.8 861.84 328.8L861.84 328.8Q873.76 328.8 881.45 324.72Q889.14 320.64 892.28 313.74L892.28 313.74L944.37 313.74Q940.6 331.31 929.46 345.12Q918.32 358.93 901.22 366.77Q884.12 374.62 861.84 374.62M1034.74 368.34L977.63 368.34L977.63 195.12L1022.82 195.12L1022.82 269.81L1020.31 269.81Q1020.31 242.82 1027.05 225.09Q1033.8 207.36 1046.98 198.42Q1060.16 189.47 1079.3 189.47L1079.3 189.47L1081.81 189.47Q1101.27 189.47 1114.29 198.42Q1127.31 207.36 1134.06 225.09Q1140.81 242.82 1140.81 269.81L1140.81 269.81L1127.63 269.81Q1127.63 242.82 1134.37 225.09Q1141.12 207.36 1154.3 198.42Q1167.48 189.47 1186.62 189.47L1186.62 189.47L1189.13 189.47Q1208.59 189.47 1221.92 198.42Q1235.26 207.36 1242.32 225.09Q1249.38 242.82 1249.38 269.81L1249.38 269.81L1249.38 368.34L1192.27 368.34L1192.27 268.24Q1192.27 256.31 1185.84 248.31Q1179.4 240.31 1167.48 240.31L1167.48 240.31Q1155.56 240.31 1148.81 248.31Q1142.06 256.31 1142.06 268.87L1142.06 268.87L1142.06 368.34L1084.95 368.34L1084.95 268.24Q1084.95 256.31 1078.52 248.31Q1072.08 240.31 1060.16 240.31L1060.16 240.31Q1048.24 240.31 1041.49 248.31Q1034.74 256.31 1034.74 268.87L1034.74 268.87L1034.74 368.34M1368.94 374.62L1368.94 374.62Q1346.97 374.62 1330.03 367.09Q1313.08 359.55 1301.47 346.69Q1289.86 333.82 1283.74 317.82Q1277.62 301.81 1277.62 284.87L1277.62 284.87L1277.62 278.59Q1277.62 261.02 1283.74 244.86Q1289.86 228.7 1301.32 216.15Q1312.77 203.6 1329.4 196.22Q1346.03 188.85 1367.06 188.85L1367.06 188.85Q1394.98 188.85 1414.44 201.4Q1433.9 213.95 1444.25 234.5Q1454.61 255.06 1454.61 279.22L1454.61 279.22L1454.61 297.42L1301.47 297.42L1301.47 266.67L1421.66 266.67L1401.89 280.48Q1401.89 265.73 1397.97 255.53Q1394.04 245.33 1386.36 240Q1378.67 234.66 1367.06 234.66L1367.06 234.66Q1355.76 234.66 1347.44 239.84Q1339.13 245.02 1334.74 255.53Q1330.34 266.04 1330.34 282.05L1330.34 282.05Q1330.34 296.48 1334.42 306.99Q1338.5 317.5 1346.97 323.15Q1355.45 328.8 1368.94 328.8L1368.94 328.8Q1380.86 328.8 1388.55 324.72Q1396.24 320.64 1399.38 313.74L1399.38 313.74L1451.47 313.74Q1447.7 331.31 1436.56 345.12Q1425.42 358.93 1408.32 366.77Q1391.22 374.62 1368.94 374.62M1555.96 373.99L1555.96 373.99Q1537.76 373.99 1522.86 367.4Q1507.95 360.81 1497.13 349.04Q1486.3 337.27 1480.5 321.27Q1474.69 305.27 1474.69 286.44L1474.69 286.44L1474.69 278.91Q1474.69 260.08 1480.18 243.92Q1485.67 227.76 1496.03 215.68Q1506.38 203.6 1521.13 196.85Q1535.88 190.1 1554.08 190.1L1554.08 190.1Q1575.11 190.1 1590.01 199.36Q1604.92 208.62 1612.92 226.19Q1620.92 243.76 1621.55 268.87L1621.55 268.87L1608.37 259.14L1608.37 139.27L1665.48 139.27L1665.48 368.34L1620.29 368.34L1620.29 298.05L1626.57 298.05Q1625.94 321.27 1617.16 338.37Q1608.37 355.47 1592.84 364.73Q1577.3 373.99 1555.96 373.99M1571.34 326.92L1571.34 326.92Q1581.7 326.92 1590.33 322.21Q1598.96 317.5 1604.29 308.4Q1609.62 299.3 1609.62 286.44L1609.62 286.44L1609.62 275.77Q1609.62 263.22 1604.13 254.74Q1598.64 246.27 1590.01 241.72Q1581.38 237.17 1571.34 237.17L1571.34 237.17Q1560.04 237.17 1551.1 242.98Q1542.16 248.78 1536.98 258.98Q1531.8 269.18 1531.8 282.67L1531.8 282.67Q1531.8 296.17 1536.98 306.05Q1542.16 315.94 1551.1 321.43Q1560.04 326.92 1571.34 326.92M1856.9 368.34L1811.71 368.34L1811.71 317.5L1802.3 317.5L1802.3 263.22Q1802.3 251.29 1796.81 245.49Q1791.31 239.68 1778.76 239.68L1778.76 239.68Q1772.8 239.68 1761.19 240Q1749.58 240.31 1736.71 240.94Q1723.85 241.57 1713.18 242.19L1713.18 242.19L1713.18 194.5Q1720.71 193.87 1731.06 193.24Q1741.42 192.61 1752.56 192.3Q1763.7 191.98 1773.11 191.98L1773.11 191.98Q1799.79 191.98 1818.46 199.83Q1837.13 207.67 1847.01 223.36Q1856.9 239.05 1856.9 263.22L1856.9 263.22L1856.9 368.34M1756.8 372.73L1756.8 372.73Q1738.6 372.73 1724.48 366.14Q1710.35 359.55 1702.35 347.16Q1694.35 334.76 1694.35 317.5L1694.35 317.5Q1694.35 298.05 1704.71 285.97Q1715.06 273.89 1733.26 268.24Q1751.46 262.59 1775 262.59L1775 262.59L1808.57 262.59L1808.57 292.09L1775 292.09Q1763.39 292.09 1757.11 297.89Q1750.83 303.7 1750.83 313.43L1750.83 313.43Q1750.83 322.84 1757.11 328.64Q1763.39 334.45 1775 334.45L1775 334.45Q1782.53 334.45 1788.33 331.78Q1794.14 329.12 1797.9 322.53Q1801.67 315.94 1802.3 304.33L1802.3 304.33L1815.48 316.88Q1813.91 334.76 1806.85 347.16Q1799.79 359.55 1787.39 366.14Q1775 372.73 1756.8 372.73" fill="#f1f5f9"/></svg>