<svg xmlns="http://www.w3.org/2000/svg" width="512" height="512" viewBox="0 0 512 512"><rect width="512" height="512" fill="#ffffff"/><polygon points="0,0 391,0 316,512 0,512" fill="#1c1f26"/><path d="M302.39 484L238.88 484L238.88 199L350.02 199L355.01 199.05L359.9 199.22L364.69 199.49L369.4 199.87L374 200.36L378.52 200.96L382.93 201.66L387.26 202.48L391.48 203.4L395.62 204.43L399.66 205.57L403.6 206.82L407.45 208.18L411.2 209.65L414.85 211.22L418.37 212.9L421.77 214.68L425.05 216.57L428.2 218.56L431.23 220.66L434.14 222.86L436.93 225.17L439.6 227.58L442.14 230.1L444.56 232.72L446.86 235.44L449.03 238.27L451.09 241.21L453.01 244.25L454.78 247.4L456.42 250.67L457.91 254.04L459.26 257.53L460.47 261.12L461.54 264.83L462.47 268.65L463.25 272.57L463.89 276.61L464.39 280.76L464.74 285.02L464.95 289.39L465.03 293.87L465.03 293.87L465.03 300.07L464.95 304.49L464.74 308.81L464.39 313.01L463.89 317.1L463.25 321.09L462.47 324.96L461.54 328.72L460.47 332.37L459.26 335.91L457.91 339.34L456.42 342.66L454.78 345.87L453.01 348.97L451.09 351.96L451.09 351.96L449.04 354.84L446.87 357.61L444.6 360.29L442.2 362.86L439.7 365.33L437.07 367.7L434.34 369.96L431.49 372.12L428.52 374.18L425.44 376.14L422.25 377.99L418.94 379.74L415.51 381.39L411.98 382.93L411.98 382.93L484 484L410.43 484L348.86 393.39L302.39 393.39L302.39 484ZM355.05 252.82L302.39 252.82L302.39 343.44L355.05 343.44L357.03 343.41L358.96 343.32L360.86 343.18L362.72 342.98L364.54 342.72L366.33 342.4L368.07 342.03L369.78 341.6L371.46 341.12L373.09 340.57L374.69 339.97L376.25 339.31L377.77 338.59L379.25 337.82L380.7 337L382.09 336.12L383.44 335.2L384.74 334.23L385.99 333.22L387.2 332.16L388.35 331.04L389.46 329.89L390.53 328.68L391.54 327.43L392.51 326.13L393.43 324.78L394.31 323.39L395.13 321.94L395.9 320.46L396.62 318.95L397.28 317.4L397.88 315.81L398.43 314.2L398.91 312.54L399.34 310.86L399.71 309.14L400.03 307.39L400.29 305.61L400.49 303.79L400.63 301.94L400.72 300.05L400.75 298.13L400.72 296.21L400.63 294.33L400.49 292.47L400.29 290.65L400.03 288.87L399.71 287.12L399.34 285.4L398.91 283.72L398.43 282.07L397.88 280.45L397.28 278.86L396.62 277.31L395.9 275.8L395.13 274.32L394.31 272.87L393.43 271.48L392.51 270.13L391.54 268.83L390.53 267.58L389.46 266.37L388.35 265.22L387.2 264.11L385.99 263.04L384.74 262.03L383.44 261.06L382.09 260.14L380.7 259.27L379.25 258.44L377.77 257.67L376.25 256.95L374.69 256.29L373.09 255.69L371.46 255.15L369.78 254.66L368.07 254.23L366.33 253.86L364.54 253.54L362.72 253.28L360.86 253.08L358.96 252.94L357.03 252.85L355.05 252.82L355.05 252.82Z" fill="#1c1f26"/><path d="M333.37 393.39L302.39 393.39L302.39 484L302.39 484L238.88 484L238.88 199L350.02 199L355.01 199.05L359.9 199.22L361.8 199.33ZM353.97 252.82L302.39 252.82L302.39 343.44L340.69 343.44Z" fill="#ffffff"/></svg>