<svg xmlns="http://www.w3.org/2000/svg" width="512" height="512" viewBox="0 0 512 512"><mask id="cut" maskUnits="userSpaceOnUse" x="0" y="0" width="512" height="512"><polygon points="0,0 416,0 258,512 0,512" fill="#fff"/><path d="M266.02 486L244.88 486L244.88 201L353.97 201ZM337.36 254.82L308.39 254.82L308.39 345.44L309.4 345.44Z" fill="#000"/><path d="M353.97 201L356.02 201L361.01 201.05L365.9 201.22L370.69 201.49L375.4 201.87L380 202.36L384.52 202.96L388.93 203.66L393.26 204.48L397.48 205.4L401.62 206.43L405.66 207.57L409.6 208.82L413.45 210.18L417.2 211.65L420.85 213.22L424.37 214.9L427.77 216.68L431.05 218.57L434.2 220.56L437.23 222.66L440.14 224.86L442.93 227.17L445.6 229.58L448.14 232.1L450.56 234.72L452.86 237.44L455.03 240.27L457.09 243.21L459.01 246.25L460.78 249.4L462.42 252.67L463.91 256.04L465.26 259.53L466.47 263.12L467.54 266.83L468.47 270.65L469.25 274.57L469.89 278.61L470.39 282.76L470.74 287.02L470.95 291.39L471.03 295.87L471.03 295.87L471.03 302.07L470.95 306.49L470.74 310.81L470.39 315.01L469.89 319.1L469.25 323.09L468.47 326.96L467.54 330.72L466.47 334.37L465.26 337.91L463.91 341.34L462.42 344.66L460.78 347.87L459.01 350.97L457.09 353.96L457.09 353.96L455.04 356.84L452.87 359.61L450.6 362.29L448.2 364.86L445.7 367.33L443.07 369.7L440.34 371.96L437.49 374.12L434.52 376.18L431.44 378.14L428.25 379.99L424.94 381.74L421.51 383.39L417.98 384.93L417.98 384.93L490 486L416.43 486L354.86 395.39L308.39 395.39L308.39 486L308.39 486L266.02 486ZM309.4 345.44L361.05 345.44L363.03 345.41L364.96 345.32L366.86 345.18L368.72 344.98L370.54 344.72L372.33 344.4L374.07 344.03L375.78 343.6L377.46 343.12L379.09 342.57L380.69 341.97L382.25 341.31L383.77 340.59L385.25 339.82L386.7 339L388.09 338.12L389.44 337.2L390.74 336.23L391.99 335.22L393.2 334.16L394.35 333.04L395.46 331.89L396.53 330.68L397.54 329.43L398.51 328.13L399.43 326.78L400.31 325.39L401.13 323.94L401.9 322.46L402.62 320.95L403.28 319.4L403.88 317.81L404.43 316.2L404.91 314.54L405.34 312.86L405.71 311.14L406.03 309.39L406.29 307.61L406.49 305.79L406.63 303.94L406.72 302.05L406.75 300.13L406.72 298.21L406.63 296.33L406.49 294.47L406.29 292.65L406.03 290.87L405.71 289.12L405.34 287.4L404.91 285.72L404.43 284.07L403.88 282.45L403.28 280.86L402.62 279.31L401.9 277.8L401.13 276.32L400.31 274.87L399.43 273.48L398.51 272.13L397.54 270.83L396.53 269.58L395.46 268.37L394.35 267.22L393.2 266.11L391.99 265.04L390.74 264.03L389.44 263.06L388.09 262.14L386.7 261.27L385.25 260.44L383.77 259.67L382.25 258.95L380.69 258.29L379.09 257.69L377.46 257.15L375.78 256.66L374.07 256.23L372.33 255.86L370.54 255.54L368.72 255.28L366.86 255.08L364.96 254.94L363.03 254.85L361.05 254.82L361.05 254.82L361.05 254.82L337.36 254.82Z" fill="#fff"/></mask><rect width="512" height="512" fill="#1c1f26" mask="url(#cut)"/></svg>