<svg xmlns="http://www.w3.org/2000/svg" width="1898" height="512" viewBox="0 0 1898 512"><g transform="translate(36,41) scale(0.8398)"><rect width="512" height="512" fill="#f7df1e"/><polygon points="0,0 416,0 258,512 0,512" fill="#3178c6"/><path d="M308.39 486L244.88 486L244.88 201L356.02 201L361.01 201.05L365.9 201.22L370.69 201.49L375.4 201.87L380 202.36L384.52 202.96L388.93 203.66L393.26 204.48L397.48 205.4L401.62 206.43L405.66 207.57L409.6 208.82L413.45 210.18L417.2 211.65L420.85 213.22L424.37 214.9L427.77 216.68L431.05 218.57L434.2 220.56L437.23 222.66L440.14 224.86L442.93 227.17L445.6 229.58L448.14 232.1L450.56 234.72L452.86 237.44L455.03 240.27L457.09 243.21L459.01 246.25L460.78 249.4L462.42 252.67L463.91 256.04L465.26 259.53L466.47 263.12L467.54 266.83L468.47 270.65L469.25 274.57L469.89 278.61L470.39 282.76L470.74 287.02L470.95 291.39L471.03 295.87L471.03 295.87L471.03 302.07L470.95 306.49L470.74 310.81L470.39 315.01L469.89 319.1L469.25 323.09L468.47 326.96L467.54 330.72L466.47 334.37L465.26 337.91L463.91 341.34L462.42 344.66L460.78 347.87L459.01 350.97L457.09 353.96L457.09 353.96L455.04 356.84L452.87 359.61L450.6 362.29L448.2 364.86L445.7 367.33L443.07 369.7L440.34 371.96L437.49 374.12L434.52 376.18L431.44 378.14L428.25 379.99L424.94 381.74L421.51 383.39L417.98 384.93L417.98 384.93L490 486L416.43 486L354.86 395.39L308.39 395.39L308.39 486ZM361.05 254.82L308.39 254.82L308.39 345.44L361.05 345.44L363.03 345.41L364.96 345.32L366.86 345.18L368.72 344.98L370.54 344.72L372.33 344.4L374.07 344.03L375.78 343.6L377.46 343.12L379.09 342.57L380.69 341.97L382.25 341.31L383.77 340.59L385.25 339.82L386.7 339L388.09 338.12L389.44 337.2L390.74 336.23L391.99 335.22L393.2 334.16L394.35 333.04L395.46 331.89L396.53 330.68L397.54 329.43L398.51 328.13L399.43 326.78L400.31 325.39L401.13 323.94L401.9 322.46L402.62 320.95L403.28 319.4L403.88 317.81L404.43 316.2L404.91 314.54L405.34 312.86L405.71 311.14L406.03 309.39L406.29 307.61L406.49 305.79L406.63 303.94L406.72 302.05L406.75 300.13L406.72 298.21L406.63 296.33L406.49 294.47L406.29 292.65L406.03 290.87L405.71 289.12L405.34 287.4L404.91 285.72L404.43 284.07L403.88 282.45L403.28 280.86L402.62 279.31L401.9 277.8L401.13 276.32L400.31 274.87L399.43 273.48L398.51 272.13L397.54 270.83L396.53 269.58L395.46 268.37L394.35 267.22L393.2 266.11L391.99 265.04L390.74 264.03L389.44 263.06L388.09 262.14L386.7 261.27L385.25 260.44L383.77 259.67L382.25 258.95L380.69 258.29L379.09 257.69L377.46 257.15L375.78 256.66L374.07 256.23L372.33 255.86L370.54 255.54L368.72 255.28L366.86 255.08L364.96 254.94L363.03 254.85L361.05 254.82L361.05 254.82Z" fill="#1c1f26"/><path d="M266.02 486L244.88 486L244.88 201L353.97 201ZM337.36 254.82L308.39 254.82L308.39 345.44L309.4 345.44Z" fill="#ffffff"/></g><path d="M607.33 372.59L554 372.59L554 133.23L647.34 133.23Q676.93 133.23 698.72 142.18Q720.51 151.12 732.22 168.68Q743.92 186.24 743.92 212.91L743.92 212.91L743.92 218.11Q743.92 244.46 732.22 261.69L732.22 261.69Q720.51 278.93 699.37 287.71L699.37 287.71L759.86 372.59L698.07 372.59L646.36 296.49L607.33 296.49L607.33 372.59M651.56 178.44L607.33 178.44L607.33 254.54L651.56 254.54Q663.27 254.54 671.89 249.82Q680.51 245.11 685.22 236.49Q689.94 227.87 689.94 216.49Q689.94 205.1 685.22 196.49Q680.51 187.87 671.89 183.15Q663.27 178.44 651.56 178.44L651.56 178.44M866.85 378.77L866.85 378.77Q844.09 378.77 826.69 370.96Q809.29 363.16 797.75 349.99Q786.2 336.81 780.18 320.39Q774.17 303.97 774.17 286.73L774.17 286.73L774.17 280.23Q774.17 262.34 780.18 245.92Q786.2 229.5 797.58 216.49Q808.97 203.48 826.04 195.84Q843.11 188.19 864.9 188.19L864.9 188.19Q893.52 188.19 913.2 201.04Q932.87 213.89 943.28 234.54Q953.68 255.19 953.68 279.58L953.68 279.58L953.68 297.14L823.6 297.14Q824.58 304.94 827.18 311.45L827.18 311.45Q831.73 323.48 841.49 329.99Q851.24 336.49 866.85 336.49L866.85 336.49Q881.16 336.49 890.27 330.96Q899.37 325.43 902.63 317.3L902.63 317.3L950.43 317.3Q946.53 335.19 935.15 349.17Q923.77 363.16 906.53 370.96Q889.29 378.77 866.85 378.77M823.93 267.54L823.93 267.54L904.25 267.54Q903.28 260.07 900.68 253.89L900.68 253.89Q896.12 242.5 887.18 236.49Q878.24 230.47 864.9 230.47L864.9 230.47Q851.24 230.47 841.81 236.65Q832.38 242.83 827.5 254.54L827.5 254.54Q825.23 260.39 823.93 267.54M1040.19 372.59L988.16 372.59L988.16 194.37L1029.46 194.37L1029.46 239.25Q1031.08 231.77 1033.36 225.59L1033.36 225.59Q1040.19 207.38 1053.85 198.11Q1067.51 188.84 1087.35 188.84L1087.35 188.84L1089.62 188.84Q1109.79 188.84 1123.28 198.11Q1136.78 207.38 1143.93 225.59L1143.93 225.59Q1144.26 226.57 1144.58 227.22L1144.58 227.22Q1144.58 226.57 1145.23 225.59L1145.23 225.59Q1152.06 207.38 1165.72 198.11Q1179.38 188.84 1199.22 188.84L1199.22 188.84L1201.5 188.84Q1221.66 188.84 1235.48 198.11Q1249.3 207.38 1256.46 225.59Q1263.61 243.8 1263.61 271.12L1263.61 271.12L1263.61 372.59L1211.58 372.59L1211.58 268.2Q1211.58 253.56 1203.93 244.46Q1196.29 235.35 1182.31 235.35Q1168.32 235.35 1160.19 244.62Q1152.06 253.89 1152.06 269.17L1152.06 269.17L1152.06 372.59L1099.7 372.59L1099.7 268.2Q1099.7 253.56 1092.06 244.46Q1084.42 235.35 1070.76 235.35L1070.76 235.35Q1056.45 235.35 1048.32 244.62Q1040.19 253.89 1040.19 269.17L1040.19 269.17L1040.19 372.59M1389.47 378.77L1389.47 378.77Q1366.7 378.77 1349.3 370.96Q1331.91 363.16 1320.36 349.99Q1308.82 336.81 1302.8 320.39Q1296.78 303.97 1296.78 286.73L1296.78 286.73L1296.78 280.23Q1296.78 262.34 1302.8 245.92Q1308.82 229.5 1320.2 216.49Q1331.58 203.48 1348.65 195.84Q1365.73 188.19 1387.52 188.19L1387.52 188.19Q1416.13 188.19 1435.81 201.04Q1455.49 213.89 1465.89 234.54Q1476.3 255.19 1476.3 279.58L1476.3 279.58L1476.3 297.14L1346.21 297.14Q1347.19 304.94 1349.79 311.45L1349.79 311.45Q1354.34 323.48 1364.1 329.99Q1373.86 336.49 1389.47 336.49L1389.47 336.49Q1403.78 336.49 1412.88 330.96Q1421.99 325.43 1425.24 317.3L1425.24 317.3L1473.05 317.3Q1469.14 335.19 1457.76 349.17Q1446.38 363.16 1429.14 370.96Q1411.91 378.77 1389.47 378.77M1346.54 267.54L1346.54 267.54L1426.87 267.54Q1425.89 260.07 1423.29 253.89L1423.29 253.89Q1418.74 242.5 1409.79 236.49Q1400.85 230.47 1387.52 230.47L1387.52 230.47Q1373.86 230.47 1364.43 236.65Q1355 242.83 1350.12 254.54L1350.12 254.54Q1347.84 260.39 1346.54 267.54M1584.27 378.44L1584.27 378.44Q1565.41 378.44 1549.96 371.61Q1534.51 364.78 1523.13 352.59Q1511.75 340.39 1505.73 323.81Q1499.71 307.22 1499.71 288.03L1499.71 288.03L1499.71 280.55Q1499.71 261.37 1505.41 244.78Q1511.1 228.19 1521.99 215.67Q1532.89 203.15 1548.17 196.16Q1563.46 189.17 1582.32 189.17L1582.32 189.17Q1603.78 189.17 1619.39 198.28L1619.39 198.28Q1631.75 205.75 1639.88 218.76L1639.88 218.76L1639.88 135.18L1692.24 135.18L1692.24 372.59L1650.94 372.59L1650.94 334.86Q1649.31 338.44 1647.69 342.02L1647.69 342.02Q1637.93 359.9 1621.67 369.17Q1605.41 378.44 1584.27 378.44M1597.28 334.86L1597.28 334.86Q1609.31 334.86 1619.23 329.5Q1629.15 324.13 1635.16 313.72Q1641.18 303.32 1641.18 288.68L1641.18 288.68L1641.18 276.65Q1641.18 262.34 1635 252.59Q1628.82 242.83 1618.74 237.63Q1608.66 232.42 1596.95 232.42L1596.95 232.42Q1583.94 232.42 1573.7 239.09Q1563.46 245.76 1557.6 257.3Q1551.75 268.85 1551.75 284.13L1551.75 284.13Q1551.75 299.74 1557.6 311.12Q1563.46 322.51 1573.86 328.68Q1584.27 334.86 1597.28 334.86M1888.34 372.59L1847.04 372.59L1847.04 338.44Q1844.76 345.27 1841.84 350.8L1841.84 350.8Q1834.36 363.48 1821.51 370.31Q1808.66 377.14 1790.13 377.14L1790.13 377.14Q1770.94 377.14 1756.47 370.31Q1742 363.48 1733.87 350.64Q1725.74 337.79 1725.74 319.9L1725.74 319.9Q1725.74 300.39 1735.82 287.87Q1745.9 275.35 1764.11 269.33Q1782.32 263.32 1806.06 263.32L1806.06 263.32L1838.26 263.32L1838.26 262.67Q1838.26 249.01 1831.75 242.18Q1825.25 235.35 1810.94 235.35L1810.94 235.35Q1803.79 235.35 1792.08 235.67Q1780.37 236 1768.01 236.65Q1755.66 237.3 1745.57 237.95L1745.57 237.95L1745.57 194.05Q1753.05 193.4 1763.14 192.75Q1773.22 192.1 1783.95 191.77Q1794.68 191.45 1804.11 191.45L1804.11 191.45Q1831.43 191.45 1850.13 199.25Q1868.83 207.06 1878.59 222.83Q1888.34 238.6 1888.34 263.32L1888.34 263.32L1888.34 372.59M1838.26 306.57L1838.26 292.26L1805.74 292.26Q1792.08 292.26 1784.76 298.93Q1777.44 305.59 1777.44 316.98L1777.44 316.98Q1777.44 327.71 1784.76 334.38Q1792.08 341.04 1805.74 341.04L1805.74 341.04Q1814.52 341.04 1821.51 337.95Q1828.5 334.86 1833.06 327.38Q1837.61 319.9 1838.26 306.57L1838.26 306.57" fill="#f1f5f9"/></svg>