<svg xmlns="http://www.w3.org/2000/svg" width="1872" height="512" viewBox="0 0 1872 512"><g transform="translate(36,41) scale(0.8398)"><polygon points="0,0 446,0 286,512 0,512" fill="#3178c6"/><polygon points="446,0 512,0 512,512 286,512" fill="#f7df1e"/><path d="M294.13 486L267.85 486L267.85 236L331.03 236L331.03 367.9ZM317.9 409.91L315.07 409.91L315.07 361.34L333.08 361.34ZM355.69 288.99L315.07 288.99L315.07 236L370.77 236L372.25 236.02Z" fill="#ffffff"/><path d="M331.03 367.9L331.03 486L331.03 486L294.13 486ZM490 486L417.31 486L347.68 380.7L416.29 380.7L490 486ZM372.25 236.02L375.34 236.05L379.81 236.2L384.2 236.44L388.49 236.79L392.7 237.23L396.81 237.78L400.84 238.42L404.77 239.16L408.61 240L412.37 240.94L416.03 241.98L419.6 243.11L423.09 244.35L426.48 245.68L429.77 247.11L432.96 248.63L436.03 250.25L438.99 251.96L441.84 253.77L444.57 255.66L447.2 257.65L449.72 259.74L452.12 261.92L454.42 264.19L456.6 266.56L458.67 269.01L460.64 271.57L462.49 274.21L464.22 276.95L465.82 279.78L467.3 282.71L468.64 285.72L469.86 288.83L470.95 292.03L471.91 295.32L472.75 298.7L473.45 302.17L474.03 305.74L474.48 309.39L474.8 313.14L474.99 316.99L475.05 320.92L475.05 320.92L475.05 326.35L474.99 330.28L474.79 334.12L474.47 337.86L474.01 341.51L473.43 345.06L472.71 348.51L471.87 351.87L470.9 355.14L469.79 358.3L468.56 361.38L467.19 364.36L465.7 367.24L464.07 370.03L462.32 372.72L460.44 375.32L458.46 377.82L456.37 380.23L454.18 382.55L451.88 384.77L449.46 386.9L446.95 388.94L444.32 390.88L441.59 392.73L438.75 394.49L435.8 396.15L432.74 397.72L429.58 399.19L426.31 400.57L422.94 401.86L419.48 403.05L415.93 404.15L412.28 405.15L408.54 406.05L404.71 406.86L400.79 407.58L396.78 408.2L392.68 408.72L388.48 409.15L384.19 409.48L379.81 409.72L375.34 409.87L370.77 409.91L370.77 409.91L370.77 409.91L317.9 409.91L333.08 361.34L374.51 361.34L376.1 361.32L377.65 361.25L379.17 361.14L380.67 360.98L382.13 360.78L383.56 360.53L384.96 360.24L386.32 359.9L387.66 359.51L388.96 359.09L390.24 358.61L391.48 358.1L392.69 357.53L393.87 356.92L395.02 356.27L396.13 355.59L397.2 354.86L398.24 354.1L399.24 353.29L400.2 352.45L401.13 351.57L402.02 350.66L402.88 349.7L403.7 348.71L404.48 347.68L405.23 346.61L405.94 345.5L406.61 344.36L407.24 343.18L407.83 341.97L408.36 340.74L408.86 339.48L409.3 338.19L409.7 336.87L410.05 335.52L410.35 334.15L410.61 332.75L410.82 331.32L410.99 329.87L411.1 328.38L411.17 326.87L411.2 325.33L411.2 325.33L411.17 323.75L411.1 322.19L410.99 320.67L410.82 319.18L410.61 317.72L410.35 316.29L410.05 314.89L409.7 313.52L409.3 312.19L408.86 310.88L408.36 309.61L407.83 308.36L407.24 307.15L406.61 305.97L405.94 304.83L405.23 303.72L404.48 302.65L403.7 301.62L402.88 300.63L402.02 299.67L401.13 298.75L400.2 297.88L399.24 297.04L398.24 296.23L397.2 295.47L396.13 294.74L395.02 294.05L393.87 293.4L392.69 292.8L391.48 292.23L390.24 291.72L388.96 291.24L387.66 290.81L386.32 290.43L384.96 290.09L383.56 289.8L382.13 289.55L380.67 289.35L379.17 289.19L377.65 289.08L376.1 289.01L374.51 288.99L374.51 288.99L355.69 288.99Z" fill="#1c1f26"/></g><path d="M598.67 374.33L538 374.33L538 190.33L586 190.33L586 270.33L585.33 270.33Q585.33 231.67 601.5 209.67Q617.67 187.67 648 187.67L648 187.67L655.33 187.67L655.33 239.67L641.33 239.67Q621 239.67 609.83 250.67Q598.67 261.67 598.67 282.33L598.67 282.33L598.67 374.33M765 381L765 381Q741.67 381 723.67 373Q705.67 365 693.33 351.33Q681 337.67 674.5 320.67Q668 303.67 668 285.67L668 285.67L668 279Q668 260.33 674.5 243.17Q681 226 693.17 212.67Q705.33 199.33 723 191.5Q740.67 183.67 763 183.67L763 183.67Q792.67 183.67 813.33 197Q834 210.33 845 232.17Q856 254 856 279.67L856 279.67L856 299L693.33 299L693.33 266.33L821 266.33L800 281Q800 265.33 795.83 254.5Q791.67 243.67 783.5 238Q775.33 232.33 763 232.33L763 232.33Q751 232.33 742.17 237.83Q733.33 243.33 728.67 254.5Q724 265.67 724 282.67L724 282.67Q724 298 728.33 309.17Q732.67 320.33 741.67 326.33Q750.67 332.33 765 332.33L765 332.33Q777.67 332.33 785.83 328Q794 323.67 797.33 316.33L797.33 316.33L852.67 316.33Q848.67 335 836.83 349.67Q825 364.33 806.83 372.67Q788.67 381 765 381M948.67 374.33L888 374.33L888 190.33L936 190.33L936 269.67L933.33 269.67Q933.33 241 940.5 222.17Q947.67 203.33 961.67 193.83Q975.67 184.33 996 184.33L996 184.33L998.67 184.33Q1019.33 184.33 1033.17 193.83Q1047 203.33 1054.17 222.17Q1061.33 241 1061.33 269.67L1061.33 269.67L1047.33 269.67Q1047.33 241 1054.5 222.17Q1061.67 203.33 1075.67 193.83Q1089.67 184.33 1110 184.33L1110 184.33L1112.67 184.33Q1133.33 184.33 1147.5 193.83Q1161.67 203.33 1169.17 222.17Q1176.67 241 1176.67 269.67L1176.67 269.67L1176.67 374.33L1116 374.33L1116 268Q1116 255.33 1109.17 246.83Q1102.33 238.33 1089.67 238.33L1089.67 238.33Q1077 238.33 1069.83 246.83Q1062.67 255.33 1062.67 268.67L1062.67 268.67L1062.67 374.33L1002 374.33L1002 268Q1002 255.33 995.17 246.83Q988.33 238.33 975.67 238.33L975.67 238.33Q963 238.33 955.83 246.83Q948.67 255.33 948.67 268.67L948.67 268.67L948.67 374.33M1303.67 381L1303.67 381Q1280.33 381 1262.33 373Q1244.33 365 1232 351.33Q1219.67 337.67 1213.17 320.67Q1206.67 303.67 1206.67 285.67L1206.67 285.67L1206.67 279Q1206.67 260.33 1213.17 243.17Q1219.67 226 1231.83 212.67Q1244 199.33 1261.67 191.5Q1279.33 183.67 1301.67 183.67L1301.67 183.67Q1331.33 183.67 1352 197Q1372.67 210.33 1383.67 232.17Q1394.67 254 1394.67 279.67L1394.67 279.67L1394.67 299L1232 299L1232 266.33L1359.67 266.33L1338.67 281Q1338.67 265.33 1334.5 254.5Q1330.33 243.67 1322.17 238Q1314 232.33 1301.67 232.33L1301.67 232.33Q1289.67 232.33 1280.83 237.83Q1272 243.33 1267.33 254.5Q1262.67 265.67 1262.67 282.67L1262.67 282.67Q1262.67 298 1267 309.17Q1271.33 320.33 1280.33 326.33Q1289.33 332.33 1303.67 332.33L1303.67 332.33Q1316.33 332.33 1324.5 328Q1332.67 323.67 1336 316.33L1336 316.33L1391.33 316.33Q1387.33 335 1375.5 349.67Q1363.67 364.33 1345.5 372.67Q1327.33 381 1303.67 381M1502.33 380.33L1502.33 380.33Q1483 380.33 1467.17 373.33Q1451.33 366.33 1439.83 353.83Q1428.33 341.33 1422.17 324.33Q1416 307.33 1416 287.33L1416 287.33L1416 279.33Q1416 259.33 1421.83 242.17Q1427.67 225 1438.67 212.17Q1449.67 199.33 1465.33 192.17Q1481 185 1500.33 185L1500.33 185Q1522.67 185 1538.5 194.83Q1554.33 204.67 1562.83 223.33Q1571.33 242 1572 268.67L1572 268.67L1558 258.33L1558 131L1618.67 131L1618.67 374.33L1570.67 374.33L1570.67 299.67L1577.33 299.67Q1576.67 324.33 1567.33 342.5Q1558 360.67 1541.5 370.5Q1525 380.33 1502.33 380.33M1518.67 330.33L1518.67 330.33Q1529.67 330.33 1538.83 325.33Q1548 320.33 1553.67 310.67Q1559.33 301 1559.33 287.33L1559.33 287.33L1559.33 276Q1559.33 262.67 1553.5 253.67Q1547.67 244.67 1538.5 239.83Q1529.33 235 1518.67 235L1518.67 235Q1506.67 235 1497.17 241.17Q1487.67 247.33 1482.17 258.17Q1476.67 269 1476.67 283.33L1476.67 283.33Q1476.67 297.67 1482.17 308.17Q1487.67 318.67 1497.17 324.5Q1506.67 330.33 1518.67 330.33M1822 374.33L1774 374.33L1774 320.33L1764 320.33L1764 262.67Q1764 250 1758.17 243.83Q1752.33 237.67 1739 237.67L1739 237.67Q1732.67 237.67 1720.33 238Q1708 238.33 1694.33 239Q1680.67 239.67 1669.33 240.33L1669.33 240.33L1669.33 189.67Q1677.33 189 1688.33 188.33Q1699.33 187.67 1711.17 187.33Q1723 187 1733 187L1733 187Q1761.33 187 1781.17 195.33Q1801 203.67 1811.5 220.33Q1822 237 1822 262.67L1822 262.67L1822 374.33M1715.67 379L1715.67 379Q1696.33 379 1681.33 372Q1666.33 365 1657.83 351.83Q1649.33 338.67 1649.33 320.33L1649.33 320.33Q1649.33 299.67 1660.33 286.83Q1671.33 274 1690.67 268Q1710 262 1735 262L1735 262L1770.67 262L1770.67 293.33L1735 293.33Q1722.67 293.33 1716 299.5Q1709.33 305.67 1709.33 316L1709.33 316Q1709.33 326 1716 332.17Q1722.67 338.33 1735 338.33L1735 338.33Q1743 338.33 1749.17 335.5Q1755.33 332.67 1759.33 325.67Q1763.33 318.67 1764 306.33L1764 306.33L1778 319.67Q1776.33 338.67 1768.83 351.83Q1761.33 365 1748.17 372Q1735 379 1715.67 379" fill="#f1f5f9"/></svg>