<svg xmlns="http://www.w3.org/2000/svg" width="512" height="512" viewBox="0 0 512 512"><rect width="512" height="512" fill="#ffffff"/><polygon points="0,0 426,0 264,512 0,512" fill="#1c1f26"/><path d="M315.14 486L245.64 486L245.64 211L315.14 211L315.14 486ZM490 486L410.04 486L333.44 370.17L408.92 370.17L490 486ZM358.85 402.3L297.57 402.3L297.57 348.87L362.96 348.87L364.71 348.85L366.42 348.77L368.09 348.65L369.73 348.48L371.34 348.25L372.91 347.98L374.45 347.66L375.96 347.29L377.43 346.87L378.86 346.4L380.26 345.87L381.63 345.3L382.96 344.69L384.26 344.02L385.52 343.3L386.74 342.54L387.92 341.75L389.06 340.91L390.16 340.02L391.23 339.1L392.25 338.13L393.23 337.12L394.17 336.07L395.07 334.98L395.93 333.85L396.75 332.67L397.53 331.45L398.27 330.19L398.97 328.9L399.61 327.57L400.2 326.21L400.74 324.82L401.23 323.41L401.67 321.96L402.05 320.48L402.39 318.97L402.67 317.43L402.9 315.86L403.08 314.25L403.21 312.62L403.29 310.96L403.32 309.27L403.32 309.27L403.29 307.52L403.21 305.81L403.08 304.14L402.9 302.5L402.67 300.89L402.39 299.32L402.05 297.78L401.67 296.27L401.23 294.8L400.74 293.37L400.2 291.97L399.61 290.6L398.97 289.27L398.27 287.97L397.53 286.71L396.75 285.49L395.93 284.32L395.07 283.18L394.17 282.09L393.23 281.04L392.25 280.03L391.23 279.06L390.16 278.14L389.06 277.26L387.92 276.42L386.74 275.62L385.52 274.86L384.26 274.15L382.96 273.48L381.63 272.86L380.26 272.29L378.86 271.77L377.43 271.3L375.96 270.87L374.45 270.5L372.91 270.18L371.34 269.91L369.73 269.68L368.09 269.51L366.42 269.39L364.71 269.31L362.96 269.29L362.96 269.29L297.57 269.29L297.57 211L358.85 211L363.87 211.05L368.8 211.22L373.62 211.49L378.34 211.87L382.97 212.36L387.49 212.96L391.92 213.66L396.25 214.48L400.47 215.4L404.6 216.43L408.63 217.57L412.56 218.82L416.4 220.18L420.13 221.65L423.75 223.22L427.25 224.9L430.63 226.68L433.89 228.56L437.02 230.54L440.03 232.63L442.92 234.82L445.69 237.11L448.34 239.51L450.86 242.01L453.26 244.61L455.54 247.32L457.7 250.12L459.74 253.03L461.64 256.05L463.4 259.16L465.03 262.38L466.51 265.69L467.85 269.11L469.05 272.63L470.1 276.25L471.02 279.97L471.8 283.79L472.43 287.71L472.92 291.73L473.28 295.86L473.49 300.08L473.56 304.41L473.56 304.41L473.56 310.39L473.49 314.71L473.27 318.93L472.92 323.05L472.42 327.06L471.77 330.96L470.99 334.76L470.06 338.46L468.98 342.05L467.77 345.53L466.41 348.92L464.91 352.19L463.27 355.36L461.48 358.43L459.55 361.39L457.49 364.25L455.31 367L453.01 369.65L450.6 372.2L448.06 374.65L445.41 376.99L442.64 379.23L439.75 381.37L436.75 383.4L433.62 385.33L430.38 387.16L427.02 388.89L423.54 390.51L419.94 392.03L416.24 393.44L412.43 394.76L408.52 395.96L404.51 397.06L400.4 398.06L396.19 398.95L391.87 399.74L387.46 400.42L382.94 400.99L378.33 401.47L373.61 401.83L368.79 402.09L363.87 402.25L358.85 402.3L358.85 402.3Z" fill="#1c1f26"/><path d="M272.23 486L245.64 486L245.64 211L315.14 211L315.14 350.39ZM298.71 402.3L297.57 402.3L297.57 348.87L315.61 348.87ZM340.8 269.29L297.57 269.29L297.57 211L358.85 211L359.24 211Z" fill="#ffffff"/></svg>